<?xml version="1.0" encoding="UTF-8" standalone="no"?>
<!DOCTYPE svg PUBLIC "-//W3C//DTD SVG 1.1//EN"
 "http://www.w3.org/Graphics/SVG/1.1/DTD/svg11.dtd">
<!-- Generated by graphviz version 5.0.0 (20220707.1540)
 -->
<!-- Title: StorageDiagram Pages: 1 -->
<svg width="1289pt" height="204pt"
 viewBox="0.00 0.00 1289.38 204.00" xmlns="http://www.w3.org/2000/svg" xmlns:xlink="http://www.w3.org/1999/xlink">
<g id="graph0" class="graph" transform="scale(1 1) rotate(0) translate(4 200)">
<title>StorageDiagram</title>
<polygon fill="white" stroke="transparent" points="-4,4 -4,-200 1285.38,-200 1285.38,4 -4,4"/>
<!-- 3 -->
<g id="node1" class="node">
<title>3</title>
<polygon fill="#f2f2f2" stroke="black" points="0,-21.9 0,-195.5 434.46,-195.5 434.46,-21.9 0,-21.9"/>
<text text-anchor="middle" x="217.23" y="-178.9" font-family="Courier New" font-size="14.00">GasContract &lt;&lt;Contract&gt;&gt;</text>
<polyline fill="none" stroke="black" points="0,-170.7 434.46,-170.7 "/>
<text text-anchor="middle" x="24.8" y="-154.1" font-family="Courier New" font-size="14.00">slot</text>
<polyline fill="none" stroke="black" points="0,-145.9 49.61,-145.9 "/>
<text text-anchor="middle" x="24.8" y="-129.3" font-family="Courier New" font-size="14.00">0</text>
<polyline fill="none" stroke="black" points="0,-121.1 49.61,-121.1 "/>
<text text-anchor="middle" x="24.8" y="-104.5" font-family="Courier New" font-size="14.00">1&#45;5</text>
<polyline fill="none" stroke="black" points="0,-96.3 49.61,-96.3 "/>
<text text-anchor="middle" x="24.8" y="-79.7" font-family="Courier New" font-size="14.00">6</text>
<polyline fill="none" stroke="black" points="0,-71.5 49.61,-71.5 "/>
<text text-anchor="middle" x="24.8" y="-54.9" font-family="Courier New" font-size="14.00">7</text>
<polyline fill="none" stroke="black" points="0,-46.7 49.61,-46.7 "/>
<text text-anchor="middle" x="24.8" y="-30.1" font-family="Courier New" font-size="14.00">8</text>
<polyline fill="none" stroke="black" points="49.61,-21.9 49.61,-170.7 "/>
<text text-anchor="middle" x="242.03" y="-154.1" font-family="Courier New" font-size="14.00">type: &lt;inherited contract&gt;.variable (bytes)</text>
<polyline fill="none" stroke="black" points="49.61,-145.9 434.46,-145.9 "/>
<text text-anchor="middle" x="124.82" y="-129.3" font-family="Courier New" font-size="14.00">unallocated (28)</text>
<polyline fill="none" stroke="black" points="200.03,-121.1 200.03,-145.9 "/>
<text text-anchor="middle" x="317.25" y="-129.3" font-family="Courier New" font-size="14.00">uint32: paymentCounter (4)</text>
<polyline fill="none" stroke="black" points="49.61,-121.1 434.46,-121.1 "/>
<text text-anchor="middle" x="242.03" y="-104.5" font-family="Courier New" font-size="14.00">address[5]: administrators (160)</text>
<polyline fill="none" stroke="black" points="49.61,-96.3 434.46,-96.3 "/>
<text text-anchor="middle" x="241.63" y="-79.7" font-family="Courier New" font-size="14.00">mapping(address=&gt;uint256): balances (32)</text>
<polyline fill="none" stroke="black" points="49.61,-71.5 434.46,-71.5 "/>
<text text-anchor="middle" x="242.03" y="-54.9" font-family="Courier New" font-size="14.00">mapping(address=&gt;Payment[]): payments (32)</text>
<polyline fill="none" stroke="black" points="49.61,-46.7 434.46,-46.7 "/>
<text text-anchor="middle" x="241.83" y="-30.1" font-family="Courier New" font-size="14.00">mapping(address=&gt;uint256): whitelist (32)</text>
</g>
<!-- 1 -->
<g id="node2" class="node">
<title>1</title>
<polygon fill="#f2f2f2" stroke="black" points="716.7,-93.5 716.7,-167.9 1035.15,-167.9 1035.15,-93.5 716.7,-93.5"/>
<text text-anchor="middle" x="875.92" y="-151.3" font-family="Courier New" font-size="14.00">address[5]: administrators &lt;&lt;Array&gt;&gt;</text>
<polyline fill="none" stroke="black" points="716.7,-143.1 1035.15,-143.1 "/>
<text text-anchor="middle" x="750" y="-126.5" font-family="Courier New" font-size="14.00">slot</text>
<polyline fill="none" stroke="black" points="716.7,-118.3 783.3,-118.3 "/>
<text text-anchor="middle" x="750" y="-101.7" font-family="Courier New" font-size="14.00">1</text>
<polyline fill="none" stroke="black" points="783.3,-93.5 783.3,-143.1 "/>
<text text-anchor="middle" x="909.12" y="-126.5" font-family="Courier New" font-size="14.00">type: variable (bytes)</text>
<polyline fill="none" stroke="black" points="783.3,-118.3 1034.94,-118.3 "/>
<text text-anchor="middle" x="846.21" y="-101.7" font-family="Courier New" font-size="14.00">address (20)</text>
<polyline fill="none" stroke="black" points="909.12,-93.5 909.12,-118.3 "/>
<text text-anchor="middle" x="972.03" y="-101.7" font-family="Courier New" font-size="14.00">address (20)</text>
</g>
<!-- 3&#45;&gt;1 -->
<g id="edge1" class="edge">
<title>3:7&#45;&gt;1</title>
<path fill="none" stroke="black" d="M434.46,-108.7C524.31,-108.7 624.35,-113.32 706.35,-118.33"/>
<polygon fill="black" stroke="black" points="706.31,-121.84 716.51,-118.96 706.75,-114.85 706.31,-121.84"/>
</g>
<!-- 2 -->
<g id="node3" class="node">
<title>2</title>
<polygon fill="#f2f2f2" stroke="black" points="470.46,-0.5 470.46,-74.9 1281.38,-74.9 1281.38,-0.5 470.46,-0.5"/>
<text text-anchor="middle" x="875.92" y="-58.3" font-family="Courier New" font-size="14.00">Payment &lt;&lt;Struct&gt;&gt;</text>
<polyline fill="none" stroke="black" points="470.46,-50.1 1281.38,-50.1 "/>
<text text-anchor="middle" x="495.27" y="-33.5" font-family="Courier New" font-size="14.00">slot</text>
<polyline fill="none" stroke="black" points="470.46,-25.3 520.07,-25.3 "/>
<text text-anchor="middle" x="495.27" y="-8.7" font-family="Courier New" font-size="14.00">0</text>
<polyline fill="none" stroke="black" points="520.07,-0.5 520.07,-50.1 "/>
<text text-anchor="middle" x="900.73" y="-33.5" font-family="Courier New" font-size="14.00">type: variable (bytes)</text>
<polyline fill="none" stroke="black" points="520.07,-25.3 1281.38,-25.3 "/>
<text text-anchor="middle" x="595.28" y="-8.7" font-family="Courier New" font-size="14.00">unallocated (23)</text>
<polyline fill="none" stroke="black" points="670.49,-0.5 670.49,-25.3 "/>
<text text-anchor="middle" x="754.1" y="-8.7" font-family="Courier New" font-size="14.00">uint32: amount (4)</text>
<polyline fill="none" stroke="black" points="837.71,-0.5 837.71,-25.3 "/>
<text text-anchor="middle" x="963.33" y="-8.7" font-family="Courier New" font-size="14.00">PaymentType: paymentType (1)</text>
<polyline fill="none" stroke="black" points="1088.95,-0.5 1088.95,-25.3 "/>
<text text-anchor="middle" x="1185.17" y="-8.7" font-family="Courier New" font-size="14.00">uint32: paymentID (4)</text>
</g>
<!-- 3&#45;&gt;2 -->
<g id="edge2" class="edge">
<title>3:12&#45;&gt;2</title>
<path fill="none" stroke="black" d="M434.46,-58.7C442.92,-58.7 451.47,-58.66 460.09,-58.59"/>
<polygon fill="black" stroke="black" points="460.27,-62.08 470.24,-58.48 460.2,-55.08 460.27,-62.08"/>
</g>
</g>
</svg>
