<?xml version="1.0" encoding="UTF-8" standalone="no"?>
<!DOCTYPE svg PUBLIC "-//W3C//DTD SVG 1.1//EN"
 "http://www.w3.org/Graphics/SVG/1.1/DTD/svg11.dtd">
<!-- Generated by graphviz version 5.0.0 (20220707.1540)
 -->
<!-- Title: StorageDiagram Pages: 1 -->
<svg width="1524pt" height="325pt"
 viewBox="0.00 0.00 1523.82 325.20" xmlns="http://www.w3.org/2000/svg" xmlns:xlink="http://www.w3.org/1999/xlink">
<g id="graph0" class="graph" transform="scale(1 1) rotate(0) translate(4 321.2)">
<title>StorageDiagram</title>
<polygon fill="white" stroke="transparent" points="-4,4 -4,-321.2 1519.82,-321.2 1519.82,4 -4,4"/>
<!-- 4 -->
<g id="node1" class="node">
<title>4</title>
<polygon fill="#f2f2f2" stroke="black" points="0,-118.3 0,-316.7 668.9,-316.7 668.9,-118.3 0,-118.3"/>
<text text-anchor="middle" x="334.45" y="-300.1" font-family="Courier New" font-size="14.00">GasContract &lt;&lt;Contract&gt;&gt;</text>
<polyline fill="none" stroke="black" points="0,-291.9 668.9,-291.9 "/>
<text text-anchor="middle" x="24.8" y="-275.3" font-family="Courier New" font-size="14.00">slot</text>
<polyline fill="none" stroke="black" points="0,-267.1 49.61,-267.1 "/>
<text text-anchor="middle" x="24.8" y="-250.5" font-family="Courier New" font-size="14.00">0</text>
<polyline fill="none" stroke="black" points="0,-242.3 49.61,-242.3 "/>
<text text-anchor="middle" x="24.8" y="-225.7" font-family="Courier New" font-size="14.00">1&#45;5</text>
<polyline fill="none" stroke="black" points="0,-217.5 49.61,-217.5 "/>
<text text-anchor="middle" x="24.8" y="-200.9" font-family="Courier New" font-size="14.00">6</text>
<polyline fill="none" stroke="black" points="0,-192.7 49.61,-192.7 "/>
<text text-anchor="middle" x="24.8" y="-176.1" font-family="Courier New" font-size="14.00">7</text>
<polyline fill="none" stroke="black" points="0,-167.9 49.61,-167.9 "/>
<text text-anchor="middle" x="24.8" y="-151.3" font-family="Courier New" font-size="14.00">8</text>
<polyline fill="none" stroke="black" points="0,-143.1 49.61,-143.1 "/>
<text text-anchor="middle" x="24.8" y="-126.5" font-family="Courier New" font-size="14.00">9</text>
<polyline fill="none" stroke="black" points="49.61,-118.3 49.61,-291.9 "/>
<text text-anchor="middle" x="359.25" y="-275.3" font-family="Courier New" font-size="14.00">type: &lt;inherited contract&gt;.variable (bytes)</text>
<polyline fill="none" stroke="black" points="49.61,-267.1 668.9,-267.1 "/>
<text text-anchor="middle" x="120.62" y="-250.5" font-family="Courier New" font-size="14.00">unallocated (8)</text>
<polyline fill="none" stroke="black" points="191.63,-242.3 191.63,-267.1 "/>
<text text-anchor="middle" x="313.04" y="-250.5" font-family="Courier New" font-size="14.00">address: contractOwner (20)</text>
<polyline fill="none" stroke="black" points="434.46,-242.3 434.46,-267.1 "/>
<text text-anchor="middle" x="551.68" y="-250.5" font-family="Courier New" font-size="14.00">uint32: paymentCounter (4)</text>
<polyline fill="none" stroke="black" points="49.61,-242.3 668.9,-242.3 "/>
<text text-anchor="middle" x="359.03" y="-225.7" font-family="Courier New" font-size="14.00">address[5]: administrators (160)</text>
<polyline fill="none" stroke="black" points="49.61,-217.5 668.9,-217.5 "/>
<text text-anchor="middle" x="359.13" y="-200.9" font-family="Courier New" font-size="14.00">mapping(address=&gt;uint256): balances (32)</text>
<polyline fill="none" stroke="black" points="49.61,-192.7 668.9,-192.7 "/>
<text text-anchor="middle" x="359.03" y="-176.1" font-family="Courier New" font-size="14.00">mapping(address=&gt;Payment[]): payments (32)</text>
<polyline fill="none" stroke="black" points="49.61,-167.9 668.9,-167.9 "/>
<text text-anchor="middle" x="358.83" y="-151.3" font-family="Courier New" font-size="14.00">mapping(address=&gt;uint256): whitelist (32)</text>
<polyline fill="none" stroke="black" points="49.61,-143.1 668.9,-143.1 "/>
<text text-anchor="middle" x="359.14" y="-126.5" font-family="Courier New" font-size="14.00">mapping(address=&gt;ImportantStruct): whiteListStruct (32)</text>
</g>
<!-- 1 -->
<g id="node2" class="node">
<title>1</title>
<polygon fill="#f2f2f2" stroke="black" points="951.13,-236.3 951.13,-310.7 1269.58,-310.7 1269.58,-236.3 951.13,-236.3"/>
<text text-anchor="middle" x="1110.36" y="-294.1" font-family="Courier New" font-size="14.00">address[5]: administrators &lt;&lt;Array&gt;&gt;</text>
<polyline fill="none" stroke="black" points="951.13,-285.9 1269.58,-285.9 "/>
<text text-anchor="middle" x="984.44" y="-269.3" font-family="Courier New" font-size="14.00">slot</text>
<polyline fill="none" stroke="black" points="951.13,-261.1 1017.74,-261.1 "/>
<text text-anchor="middle" x="984.44" y="-244.5" font-family="Courier New" font-size="14.00">1</text>
<polyline fill="none" stroke="black" points="1017.74,-236.3 1017.74,-285.9 "/>
<text text-anchor="middle" x="1143.56" y="-269.3" font-family="Courier New" font-size="14.00">type: variable (bytes)</text>
<polyline fill="none" stroke="black" points="1017.74,-261.1 1269.37,-261.1 "/>
<text text-anchor="middle" x="1080.65" y="-244.5" font-family="Courier New" font-size="14.00">address (20)</text>
<polyline fill="none" stroke="black" points="1143.56,-236.3 1143.56,-261.1 "/>
<text text-anchor="middle" x="1206.46" y="-244.5" font-family="Courier New" font-size="14.00">address (20)</text>
</g>
<!-- 4&#45;&gt;1 -->
<g id="edge1" class="edge">
<title>4:8&#45;&gt;1</title>
<path fill="none" stroke="black" d="M668.9,-229.5C758.99,-229.5 858.94,-238.73 940.83,-248.73"/>
<polygon fill="black" stroke="black" points="940.62,-252.23 950.98,-249.99 941.48,-245.29 940.62,-252.23"/>
</g>
<!-- 2 -->
<g id="node3" class="node">
<title>2</title>
<polygon fill="#f2f2f2" stroke="black" points="704.9,-143.3 704.9,-217.7 1515.82,-217.7 1515.82,-143.3 704.9,-143.3"/>
<text text-anchor="middle" x="1110.36" y="-201.1" font-family="Courier New" font-size="14.00">Payment &lt;&lt;Struct&gt;&gt;</text>
<polyline fill="none" stroke="black" points="704.9,-192.9 1515.82,-192.9 "/>
<text text-anchor="middle" x="729.7" y="-176.3" font-family="Courier New" font-size="14.00">slot</text>
<polyline fill="none" stroke="black" points="704.9,-168.1 754.5,-168.1 "/>
<text text-anchor="middle" x="729.7" y="-151.5" font-family="Courier New" font-size="14.00">0</text>
<polyline fill="none" stroke="black" points="754.5,-143.3 754.5,-192.9 "/>
<text text-anchor="middle" x="1135.16" y="-176.3" font-family="Courier New" font-size="14.00">type: variable (bytes)</text>
<polyline fill="none" stroke="black" points="754.5,-168.1 1515.82,-168.1 "/>
<text text-anchor="middle" x="829.71" y="-151.5" font-family="Courier New" font-size="14.00">unallocated (23)</text>
<polyline fill="none" stroke="black" points="904.93,-143.3 904.93,-168.1 "/>
<text text-anchor="middle" x="988.54" y="-151.5" font-family="Courier New" font-size="14.00">uint32: amount (4)</text>
<polyline fill="none" stroke="black" points="1072.15,-143.3 1072.15,-168.1 "/>
<text text-anchor="middle" x="1197.77" y="-151.5" font-family="Courier New" font-size="14.00">PaymentType: paymentType (1)</text>
<polyline fill="none" stroke="black" points="1323.39,-143.3 1323.39,-168.1 "/>
<text text-anchor="middle" x="1419.6" y="-151.5" font-family="Courier New" font-size="14.00">uint32: paymentID (4)</text>
</g>
<!-- 4&#45;&gt;2 -->
<g id="edge2" class="edge">
<title>4:13&#45;&gt;2</title>
<path fill="none" stroke="black" d="M668.9,-180.5C677.35,-180.5 685.89,-180.5 694.5,-180.5"/>
<polygon fill="black" stroke="black" points="694.64,-184 704.64,-180.5 694.64,-177 694.64,-184"/>
</g>
<!-- 3 -->
<g id="node4" class="node">
<title>3</title>
<polygon fill="#f2f2f2" stroke="black" points="985.14,-0.5 985.14,-124.5 1235.58,-124.5 1235.58,-0.5 985.14,-0.5"/>
<text text-anchor="middle" x="1110.36" y="-107.9" font-family="Courier New" font-size="14.00">ImportantStruct &lt;&lt;Struct&gt;&gt;</text>
<polyline fill="none" stroke="black" points="985.14,-99.7 1235.58,-99.7 "/>
<text text-anchor="middle" x="1009.94" y="-83.1" font-family="Courier New" font-size="14.00">slot</text>
<polyline fill="none" stroke="black" points="985.14,-74.9 1034.75,-74.9 "/>
<text text-anchor="middle" x="1009.94" y="-58.3" font-family="Courier New" font-size="14.00">0</text>
<polyline fill="none" stroke="black" points="985.14,-50.1 1034.75,-50.1 "/>
<text text-anchor="middle" x="1009.94" y="-33.5" font-family="Courier New" font-size="14.00">1</text>
<polyline fill="none" stroke="black" points="985.14,-25.3 1034.75,-25.3 "/>
<text text-anchor="middle" x="1009.94" y="-8.7" font-family="Courier New" font-size="14.00">2</text>
<polyline fill="none" stroke="black" points="1034.75,-0.5 1034.75,-99.7 "/>
<text text-anchor="middle" x="1135.16" y="-83.1" font-family="Courier New" font-size="14.00">type: variable (bytes)</text>
<polyline fill="none" stroke="black" points="1034.75,-74.9 1235.58,-74.9 "/>
<text text-anchor="middle" x="1134.76" y="-58.3" font-family="Courier New" font-size="14.00">uint256: valueA (32)</text>
<polyline fill="none" stroke="black" points="1034.75,-50.1 1235.58,-50.1 "/>
<text text-anchor="middle" x="1135.16" y="-33.5" font-family="Courier New" font-size="14.00">uint256: bigValue (32)</text>
<polyline fill="none" stroke="black" points="1034.75,-25.3 1235.58,-25.3 "/>
<text text-anchor="middle" x="1134.76" y="-8.7" font-family="Courier New" font-size="14.00">uint256: valueB (32)</text>
</g>
<!-- 4&#45;&gt;3 -->
<g id="edge3" class="edge">
<title>4:18&#45;&gt;3</title>
<path fill="none" stroke="black" d="M668.9,-130.5C772.46,-130.5 888.13,-111.91 974.94,-94.17"/>
<polygon fill="black" stroke="black" points="975.76,-97.58 984.84,-92.13 974.34,-90.72 975.76,-97.58"/>
</g>
</g>
</svg>
