<?xml version="1.0" encoding="UTF-8" standalone="no"?>
<!DOCTYPE svg PUBLIC "-//W3C//DTD SVG 1.1//EN"
 "http://www.w3.org/Graphics/SVG/1.1/DTD/svg11.dtd">
<!-- Generated by graphviz version 5.0.0 (20220707.1540)
 -->
<!-- Title: StorageDiagram Pages: 1 -->
<svg width="1758pt" height="345pt"
 viewBox="0.00 0.00 1758.25 345.20" xmlns="http://www.w3.org/2000/svg" xmlns:xlink="http://www.w3.org/1999/xlink">
<g id="graph0" class="graph" transform="scale(1 1) rotate(0) translate(4 341.2)">
<title>StorageDiagram</title>
<polygon fill="white" stroke="transparent" points="-4,4 -4,-341.2 1754.25,-341.2 1754.25,4 -4,4"/>
<!-- 4 -->
<g id="node1" class="node">
<title>4</title>
<polygon fill="#f2f2f2" stroke="black" points="0,-131.3 0,-329.7 668.9,-329.7 668.9,-131.3 0,-131.3"/>
<text text-anchor="middle" x="334.45" y="-313.1" font-family="Courier New" font-size="14.00">GasContract &lt;&lt;Contract&gt;&gt;</text>
<polyline fill="none" stroke="black" points="0,-304.9 668.9,-304.9 "/>
<text text-anchor="middle" x="24.8" y="-288.3" font-family="Courier New" font-size="14.00">slot</text>
<polyline fill="none" stroke="black" points="0,-280.1 49.61,-280.1 "/>
<text text-anchor="middle" x="24.8" y="-263.5" font-family="Courier New" font-size="14.00">0</text>
<polyline fill="none" stroke="black" points="0,-255.3 49.61,-255.3 "/>
<text text-anchor="middle" x="24.8" y="-238.7" font-family="Courier New" font-size="14.00">1&#45;5</text>
<polyline fill="none" stroke="black" points="0,-230.5 49.61,-230.5 "/>
<text text-anchor="middle" x="24.8" y="-213.9" font-family="Courier New" font-size="14.00">6</text>
<polyline fill="none" stroke="black" points="0,-205.7 49.61,-205.7 "/>
<text text-anchor="middle" x="24.8" y="-189.1" font-family="Courier New" font-size="14.00">7</text>
<polyline fill="none" stroke="black" points="0,-180.9 49.61,-180.9 "/>
<text text-anchor="middle" x="24.8" y="-164.3" font-family="Courier New" font-size="14.00">8</text>
<polyline fill="none" stroke="black" points="0,-156.1 49.61,-156.1 "/>
<text text-anchor="middle" x="24.8" y="-139.5" font-family="Courier New" font-size="14.00">9</text>
<polyline fill="none" stroke="black" points="49.61,-131.3 49.61,-304.9 "/>
<text text-anchor="middle" x="359.25" y="-288.3" font-family="Courier New" font-size="14.00">type: &lt;inherited contract&gt;.variable (bytes)</text>
<polyline fill="none" stroke="black" points="49.61,-280.1 668.9,-280.1 "/>
<text text-anchor="middle" x="120.62" y="-263.5" font-family="Courier New" font-size="14.00">unallocated (8)</text>
<polyline fill="none" stroke="black" points="191.63,-255.3 191.63,-280.1 "/>
<text text-anchor="middle" x="313.04" y="-263.5" font-family="Courier New" font-size="14.00">address: contractOwner (20)</text>
<polyline fill="none" stroke="black" points="434.46,-255.3 434.46,-280.1 "/>
<text text-anchor="middle" x="551.68" y="-263.5" font-family="Courier New" font-size="14.00">uint32: paymentCounter (4)</text>
<polyline fill="none" stroke="black" points="49.61,-255.3 668.9,-255.3 "/>
<text text-anchor="middle" x="359.03" y="-238.7" font-family="Courier New" font-size="14.00">address[5]: administrators (160)</text>
<polyline fill="none" stroke="black" points="49.61,-230.5 668.9,-230.5 "/>
<text text-anchor="middle" x="359.13" y="-213.9" font-family="Courier New" font-size="14.00">mapping(address=&gt;uint256): balances (32)</text>
<polyline fill="none" stroke="black" points="49.61,-205.7 668.9,-205.7 "/>
<text text-anchor="middle" x="359.03" y="-189.1" font-family="Courier New" font-size="14.00">mapping(address=&gt;Payment[]): payments (32)</text>
<polyline fill="none" stroke="black" points="49.61,-180.9 668.9,-180.9 "/>
<text text-anchor="middle" x="358.83" y="-164.3" font-family="Courier New" font-size="14.00">mapping(address=&gt;uint256): whitelist (32)</text>
<polyline fill="none" stroke="black" points="49.61,-156.1 668.9,-156.1 "/>
<text text-anchor="middle" x="359.14" y="-139.5" font-family="Courier New" font-size="14.00">mapping(address=&gt;ImportantStruct): whiteListStruct (32)</text>
</g>
<!-- 1 -->
<g id="node2" class="node">
<title>1</title>
<polygon fill="#f2f2f2" stroke="black" points="1068.35,-262.3 1068.35,-336.7 1386.8,-336.7 1386.8,-262.3 1068.35,-262.3"/>
<text text-anchor="middle" x="1227.58" y="-320.1" font-family="Courier New" font-size="14.00">address[5]: administrators &lt;&lt;Array&gt;&gt;</text>
<polyline fill="none" stroke="black" points="1068.35,-311.9 1386.8,-311.9 "/>
<text text-anchor="middle" x="1101.65" y="-295.3" font-family="Courier New" font-size="14.00">slot</text>
<polyline fill="none" stroke="black" points="1068.35,-287.1 1134.96,-287.1 "/>
<text text-anchor="middle" x="1101.65" y="-270.5" font-family="Courier New" font-size="14.00">1</text>
<polyline fill="none" stroke="black" points="1134.96,-262.3 1134.96,-311.9 "/>
<text text-anchor="middle" x="1260.77" y="-295.3" font-family="Courier New" font-size="14.00">type: variable (bytes)</text>
<polyline fill="none" stroke="black" points="1134.96,-287.1 1386.59,-287.1 "/>
<text text-anchor="middle" x="1197.86" y="-270.5" font-family="Courier New" font-size="14.00">address (20)</text>
<polyline fill="none" stroke="black" points="1260.77,-262.3 1260.77,-287.1 "/>
<text text-anchor="middle" x="1323.68" y="-270.5" font-family="Courier New" font-size="14.00">address (20)</text>
</g>
<!-- 4&#45;&gt;1 -->
<g id="edge1" class="edge">
<title>4:8&#45;&gt;1</title>
<path fill="none" stroke="black" d="M668.9,-242.5C685.5,-242.5 688.56,-249.52 704.9,-252.5 821.89,-273.84 955.48,-285.64 1058.19,-292.08"/>
<polygon fill="black" stroke="black" points="1058.15,-295.58 1068.34,-292.71 1058.58,-288.6 1058.15,-295.58"/>
</g>
<!-- 2 -->
<g id="node3" class="node">
<title>2</title>
<polygon fill="#f2f2f2" stroke="black" points="704.9,-143.9 704.9,-243.1 1750.25,-243.1 1750.25,-143.9 704.9,-143.9"/>
<text text-anchor="middle" x="1227.58" y="-226.5" font-family="Courier New" font-size="14.00">Payment &lt;&lt;Struct&gt;&gt;</text>
<polyline fill="none" stroke="black" points="704.9,-218.3 1750.25,-218.3 "/>
<text text-anchor="middle" x="729.7" y="-201.7" font-family="Courier New" font-size="14.00">slot</text>
<polyline fill="none" stroke="black" points="704.9,-193.5 754.5,-193.5 "/>
<text text-anchor="middle" x="729.7" y="-176.9" font-family="Courier New" font-size="14.00">0</text>
<polyline fill="none" stroke="black" points="704.9,-168.7 754.5,-168.7 "/>
<text text-anchor="middle" x="729.7" y="-152.1" font-family="Courier New" font-size="14.00">1</text>
<polyline fill="none" stroke="black" points="754.5,-143.9 754.5,-218.3 "/>
<text text-anchor="middle" x="1252.38" y="-201.7" font-family="Courier New" font-size="14.00">type: variable (bytes)</text>
<polyline fill="none" stroke="black" points="754.5,-193.5 1750.25,-193.5 "/>
<text text-anchor="middle" x="825.51" y="-176.9" font-family="Courier New" font-size="14.00">unallocated (6)</text>
<polyline fill="none" stroke="black" points="896.52,-168.7 896.52,-193.5 "/>
<text text-anchor="middle" x="996.94" y="-176.9" font-family="Courier New" font-size="14.00">bool: adminUpdated (1)</text>
<polyline fill="none" stroke="black" points="1097.35,-168.7 1097.35,-193.5 "/>
<text text-anchor="middle" x="1222.97" y="-176.9" font-family="Courier New" font-size="14.00">PaymentType: paymentType (1)</text>
<polyline fill="none" stroke="black" points="1348.59,-168.7 1348.59,-193.5 "/>
<text text-anchor="middle" x="1444.81" y="-176.9" font-family="Courier New" font-size="14.00">uint32: paymentID (4)</text>
<polyline fill="none" stroke="black" points="1541.02,-168.7 1541.02,-193.5 "/>
<text text-anchor="middle" x="1645.64" y="-176.9" font-family="Courier New" font-size="14.00">address: recipient (20)</text>
<polyline fill="none" stroke="black" points="754.5,-168.7 1750.25,-168.7 "/>
<text text-anchor="middle" x="909.12" y="-152.1" font-family="Courier New" font-size="14.00">uint32: amount (4)</text>
<polyline fill="none" stroke="black" points="1063.73,-143.9 1063.73,-168.7 "/>
<text text-anchor="middle" x="1222.54" y="-152.1" font-family="Courier New" font-size="14.00">address: admin (20)</text>
<polyline fill="none" stroke="black" points="1381.35,-143.9 1381.35,-168.7 "/>
<text text-anchor="middle" x="1565.37" y="-152.1" font-family="Courier New" font-size="14.00">bytes8: recipientName (8)</text>
</g>
<!-- 4&#45;&gt;2 -->
<g id="edge2" class="edge">
<title>4:17&#45;&gt;2</title>
<path fill="none" stroke="black" d="M668.9,-193.5C677.42,-193.5 686.02,-193.5 694.68,-193.5"/>
<polygon fill="black" stroke="black" points="694.86,-197 704.86,-193.5 694.86,-190 694.86,-197"/>
</g>
<!-- 3 -->
<g id="node4" class="node">
<title>3</title>
<polygon fill="#f2f2f2" stroke="black" points="1102.36,-0.5 1102.36,-124.5 1352.79,-124.5 1352.79,-0.5 1102.36,-0.5"/>
<text text-anchor="middle" x="1227.58" y="-107.9" font-family="Courier New" font-size="14.00">ImportantStruct &lt;&lt;Struct&gt;&gt;</text>
<polyline fill="none" stroke="black" points="1102.36,-99.7 1352.79,-99.7 "/>
<text text-anchor="middle" x="1127.16" y="-83.1" font-family="Courier New" font-size="14.00">slot</text>
<polyline fill="none" stroke="black" points="1102.36,-74.9 1151.96,-74.9 "/>
<text text-anchor="middle" x="1127.16" y="-58.3" font-family="Courier New" font-size="14.00">0</text>
<polyline fill="none" stroke="black" points="1102.36,-50.1 1151.96,-50.1 "/>
<text text-anchor="middle" x="1127.16" y="-33.5" font-family="Courier New" font-size="14.00">1</text>
<polyline fill="none" stroke="black" points="1102.36,-25.3 1151.96,-25.3 "/>
<text text-anchor="middle" x="1127.16" y="-8.7" font-family="Courier New" font-size="14.00">2</text>
<polyline fill="none" stroke="black" points="1151.96,-0.5 1151.96,-99.7 "/>
<text text-anchor="middle" x="1252.38" y="-83.1" font-family="Courier New" font-size="14.00">type: variable (bytes)</text>
<polyline fill="none" stroke="black" points="1151.96,-74.9 1352.79,-74.9 "/>
<text text-anchor="middle" x="1251.98" y="-58.3" font-family="Courier New" font-size="14.00">uint256: valueA (32)</text>
<polyline fill="none" stroke="black" points="1151.96,-50.1 1352.79,-50.1 "/>
<text text-anchor="middle" x="1252.38" y="-33.5" font-family="Courier New" font-size="14.00">uint256: bigValue (32)</text>
<polyline fill="none" stroke="black" points="1151.96,-25.3 1352.79,-25.3 "/>
<text text-anchor="middle" x="1251.98" y="-8.7" font-family="Courier New" font-size="14.00">uint256: valueB (32)</text>
</g>
<!-- 4&#45;&gt;3 -->
<g id="edge3" class="edge">
<title>4:22&#45;&gt;3</title>
<path fill="none" stroke="black" d="M668.9,-143.5C685.39,-143.5 688.71,-137.63 704.9,-134.5 835.55,-109.23 986.28,-89.42 1092.02,-77.03"/>
<polygon fill="black" stroke="black" points="1092.58,-80.49 1102.11,-75.85 1091.77,-73.53 1092.58,-80.49"/>
</g>
</g>
</svg>
