<?xml version="1.0" encoding="UTF-8" standalone="no"?>
<!DOCTYPE svg PUBLIC "-//W3C//DTD SVG 1.1//EN"
 "http://www.w3.org/Graphics/SVG/1.1/DTD/svg11.dtd">
<!-- Generated by graphviz version 5.0.0 (20220707.1540)
 -->
<!-- Title: StorageDiagram Pages: 1 -->
<svg width="1164pt" height="469pt"
 viewBox="0.00 0.00 1164.16 469.20" xmlns="http://www.w3.org/2000/svg" xmlns:xlink="http://www.w3.org/1999/xlink">
<g id="graph0" class="graph" transform="scale(1 1) rotate(0) translate(4 465.2)">
<title>StorageDiagram</title>
<polygon fill="white" stroke="transparent" points="-4,4 -4,-465.2 1160.16,-465.2 1160.16,4 -4,4"/>
<!-- 4 -->
<g id="node1" class="node">
<title>4</title>
<polygon fill="#f2f2f2" stroke="black" points="0,-193.3 0,-391.7 668.9,-391.7 668.9,-193.3 0,-193.3"/>
<text text-anchor="middle" x="334.45" y="-375.1" font-family="Courier New" font-size="14.00">GasContract &lt;&lt;Contract&gt;&gt;</text>
<polyline fill="none" stroke="black" points="0,-366.9 668.9,-366.9 "/>
<text text-anchor="middle" x="24.8" y="-350.3" font-family="Courier New" font-size="14.00">slot</text>
<polyline fill="none" stroke="black" points="0,-342.1 49.61,-342.1 "/>
<text text-anchor="middle" x="24.8" y="-325.5" font-family="Courier New" font-size="14.00">0</text>
<polyline fill="none" stroke="black" points="0,-317.3 49.61,-317.3 "/>
<text text-anchor="middle" x="24.8" y="-300.7" font-family="Courier New" font-size="14.00">1&#45;5</text>
<polyline fill="none" stroke="black" points="0,-292.5 49.61,-292.5 "/>
<text text-anchor="middle" x="24.8" y="-275.9" font-family="Courier New" font-size="14.00">6</text>
<polyline fill="none" stroke="black" points="0,-267.7 49.61,-267.7 "/>
<text text-anchor="middle" x="24.8" y="-251.1" font-family="Courier New" font-size="14.00">7</text>
<polyline fill="none" stroke="black" points="0,-242.9 49.61,-242.9 "/>
<text text-anchor="middle" x="24.8" y="-226.3" font-family="Courier New" font-size="14.00">8</text>
<polyline fill="none" stroke="black" points="0,-218.1 49.61,-218.1 "/>
<text text-anchor="middle" x="24.8" y="-201.5" font-family="Courier New" font-size="14.00">9</text>
<polyline fill="none" stroke="black" points="49.61,-193.3 49.61,-366.9 "/>
<text text-anchor="middle" x="359.25" y="-350.3" font-family="Courier New" font-size="14.00">type: &lt;inherited contract&gt;.variable (bytes)</text>
<polyline fill="none" stroke="black" points="49.61,-342.1 668.9,-342.1 "/>
<text text-anchor="middle" x="120.62" y="-325.5" font-family="Courier New" font-size="14.00">unallocated (8)</text>
<polyline fill="none" stroke="black" points="191.63,-317.3 191.63,-342.1 "/>
<text text-anchor="middle" x="313.04" y="-325.5" font-family="Courier New" font-size="14.00">address: contractOwner (20)</text>
<polyline fill="none" stroke="black" points="434.46,-317.3 434.46,-342.1 "/>
<text text-anchor="middle" x="551.68" y="-325.5" font-family="Courier New" font-size="14.00">uint32: paymentCounter (4)</text>
<polyline fill="none" stroke="black" points="49.61,-317.3 668.9,-317.3 "/>
<text text-anchor="middle" x="359.03" y="-300.7" font-family="Courier New" font-size="14.00">address[5]: administrators (160)</text>
<polyline fill="none" stroke="black" points="49.61,-292.5 668.9,-292.5 "/>
<text text-anchor="middle" x="359.13" y="-275.9" font-family="Courier New" font-size="14.00">mapping(address=&gt;uint256): balances (32)</text>
<polyline fill="none" stroke="black" points="49.61,-267.7 668.9,-267.7 "/>
<text text-anchor="middle" x="359.03" y="-251.1" font-family="Courier New" font-size="14.00">mapping(address=&gt;Payment[]): payments (32)</text>
<polyline fill="none" stroke="black" points="49.61,-242.9 668.9,-242.9 "/>
<text text-anchor="middle" x="358.83" y="-226.3" font-family="Courier New" font-size="14.00">mapping(address=&gt;uint256): whitelist (32)</text>
<polyline fill="none" stroke="black" points="49.61,-218.1 668.9,-218.1 "/>
<text text-anchor="middle" x="359.14" y="-201.5" font-family="Courier New" font-size="14.00">mapping(address=&gt;ImportantStruct): whiteListStruct (32)</text>
</g>
<!-- 1 -->
<g id="node2" class="node">
<title>1</title>
<polygon fill="#f2f2f2" stroke="black" points="771.31,-386.3 771.31,-460.7 1089.76,-460.7 1089.76,-386.3 771.31,-386.3"/>
<text text-anchor="middle" x="930.53" y="-444.1" font-family="Courier New" font-size="14.00">address[5]: administrators &lt;&lt;Array&gt;&gt;</text>
<polyline fill="none" stroke="black" points="771.31,-435.9 1089.76,-435.9 "/>
<text text-anchor="middle" x="804.61" y="-419.3" font-family="Courier New" font-size="14.00">slot</text>
<polyline fill="none" stroke="black" points="771.31,-411.1 837.91,-411.1 "/>
<text text-anchor="middle" x="804.61" y="-394.5" font-family="Courier New" font-size="14.00">1</text>
<polyline fill="none" stroke="black" points="837.91,-386.3 837.91,-435.9 "/>
<text text-anchor="middle" x="963.73" y="-419.3" font-family="Courier New" font-size="14.00">type: variable (bytes)</text>
<polyline fill="none" stroke="black" points="837.91,-411.1 1089.54,-411.1 "/>
<text text-anchor="middle" x="900.82" y="-394.5" font-family="Courier New" font-size="14.00">address (20)</text>
<polyline fill="none" stroke="black" points="963.73,-386.3 963.73,-411.1 "/>
<text text-anchor="middle" x="1026.64" y="-394.5" font-family="Courier New" font-size="14.00">address (20)</text>
</g>
<!-- 4&#45;&gt;1 -->
<g id="edge1" class="edge">
<title>4:8&#45;&gt;1</title>
<path fill="none" stroke="black" d="M668.9,-304.5C704.68,-304.5 676.56,-354.66 704.9,-376.5 721.65,-389.41 741.12,-398.99 761.45,-406.07"/>
<polygon fill="black" stroke="black" points="760.58,-409.46 771.17,-409.24 762.75,-402.81 760.58,-409.46"/>
</g>
<!-- 2 -->
<g id="node3" class="node">
<title>2</title>
<polygon fill="#f2f2f2" stroke="black" points="704.9,-143.9 704.9,-367.1 1156.16,-367.1 1156.16,-143.9 704.9,-143.9"/>
<text text-anchor="middle" x="930.53" y="-350.5" font-family="Courier New" font-size="14.00">Payment &lt;&lt;Struct&gt;&gt;</text>
<polyline fill="none" stroke="black" points="704.9,-342.3 1156.16,-342.3 "/>
<text text-anchor="middle" x="729.7" y="-325.7" font-family="Courier New" font-size="14.00">slot</text>
<polyline fill="none" stroke="black" points="704.9,-317.5 754.5,-317.5 "/>
<text text-anchor="middle" x="729.7" y="-300.9" font-family="Courier New" font-size="14.00">0</text>
<polyline fill="none" stroke="black" points="704.9,-292.7 754.5,-292.7 "/>
<text text-anchor="middle" x="729.7" y="-276.1" font-family="Courier New" font-size="14.00">1</text>
<polyline fill="none" stroke="black" points="704.9,-267.9 754.5,-267.9 "/>
<text text-anchor="middle" x="729.7" y="-251.3" font-family="Courier New" font-size="14.00">2</text>
<polyline fill="none" stroke="black" points="704.9,-243.1 754.5,-243.1 "/>
<text text-anchor="middle" x="729.7" y="-226.5" font-family="Courier New" font-size="14.00">3</text>
<polyline fill="none" stroke="black" points="704.9,-218.3 754.5,-218.3 "/>
<text text-anchor="middle" x="729.7" y="-201.7" font-family="Courier New" font-size="14.00">4</text>
<polyline fill="none" stroke="black" points="704.9,-193.5 754.5,-193.5 "/>
<text text-anchor="middle" x="729.7" y="-176.9" font-family="Courier New" font-size="14.00">5</text>
<polyline fill="none" stroke="black" points="704.9,-168.7 754.5,-168.7 "/>
<text text-anchor="middle" x="729.7" y="-152.1" font-family="Courier New" font-size="14.00">6</text>
<polyline fill="none" stroke="black" points="754.5,-143.9 754.5,-342.3 "/>
<text text-anchor="middle" x="955.33" y="-325.7" font-family="Courier New" font-size="14.00">type: variable (bytes)</text>
<polyline fill="none" stroke="black" points="754.5,-317.5 1156.16,-317.5 "/>
<text text-anchor="middle" x="829.71" y="-300.9" font-family="Courier New" font-size="14.00">unallocated (31)</text>
<polyline fill="none" stroke="black" points="904.93,-292.7 904.93,-317.5 "/>
<text text-anchor="middle" x="1030.54" y="-300.9" font-family="Courier New" font-size="14.00">PaymentType: paymentType (1)</text>
<polyline fill="none" stroke="black" points="754.5,-292.7 1156.16,-292.7 "/>
<text text-anchor="middle" x="955.12" y="-276.1" font-family="Courier New" font-size="14.00">uint256: paymentID (32)</text>
<polyline fill="none" stroke="black" points="754.5,-267.9 1156.16,-267.9 "/>
<text text-anchor="middle" x="842.21" y="-251.3" font-family="Courier New" font-size="14.00">unallocated (31)</text>
<polyline fill="none" stroke="black" points="929.93,-243.1 929.93,-267.9 "/>
<text text-anchor="middle" x="1042.84" y="-251.3" font-family="Courier New" font-size="14.00">bool: adminUpdated (1)</text>
<polyline fill="none" stroke="black" points="754.5,-243.1 1156.16,-243.1 "/>
<text text-anchor="middle" x="955.22" y="-226.5" font-family="Courier New" font-size="14.00">string: recipientName (32)</text>
<polyline fill="none" stroke="black" points="754.5,-218.3 1156.16,-218.3 "/>
<text text-anchor="middle" x="840.21" y="-201.7" font-family="Courier New" font-size="14.00">unallocated (12)</text>
<polyline fill="none" stroke="black" points="925.93,-193.5 925.93,-218.3 "/>
<text text-anchor="middle" x="1041.04" y="-201.7" font-family="Courier New" font-size="14.00">address: recipient (20)</text>
<polyline fill="none" stroke="black" points="754.5,-193.5 1156.16,-193.5 "/>
<text text-anchor="middle" x="848.21" y="-176.9" font-family="Courier New" font-size="14.00">unallocated (12)</text>
<polyline fill="none" stroke="black" points="941.93,-168.7 941.93,-193.5 "/>
<text text-anchor="middle" x="1048.74" y="-176.9" font-family="Courier New" font-size="14.00">address: admin (20)</text>
<polyline fill="none" stroke="black" points="754.5,-168.7 1156.16,-168.7 "/>
<text text-anchor="middle" x="955.02" y="-152.1" font-family="Courier New" font-size="14.00">uint256: amount (32)</text>
</g>
<!-- 4&#45;&gt;2 -->
<g id="edge2" class="edge">
<title>4:17&#45;&gt;2</title>
<path fill="none" stroke="black" d="M668.9,-255.5C677.27,-255.5 685.8,-255.5 694.41,-255.5"/>
<polygon fill="black" stroke="black" points="694.56,-259 704.56,-255.5 694.56,-252 694.56,-259"/>
</g>
<!-- 3 -->
<g id="node4" class="node">
<title>3</title>
<polygon fill="#f2f2f2" stroke="black" points="805.31,-0.5 805.31,-124.5 1055.75,-124.5 1055.75,-0.5 805.31,-0.5"/>
<text text-anchor="middle" x="930.53" y="-107.9" font-family="Courier New" font-size="14.00">ImportantStruct &lt;&lt;Struct&gt;&gt;</text>
<polyline fill="none" stroke="black" points="805.31,-99.7 1055.75,-99.7 "/>
<text text-anchor="middle" x="830.12" y="-83.1" font-family="Courier New" font-size="14.00">slot</text>
<polyline fill="none" stroke="black" points="805.31,-74.9 854.92,-74.9 "/>
<text text-anchor="middle" x="830.12" y="-58.3" font-family="Courier New" font-size="14.00">0</text>
<polyline fill="none" stroke="black" points="805.31,-50.1 854.92,-50.1 "/>
<text text-anchor="middle" x="830.12" y="-33.5" font-family="Courier New" font-size="14.00">1</text>
<polyline fill="none" stroke="black" points="805.31,-25.3 854.92,-25.3 "/>
<text text-anchor="middle" x="830.12" y="-8.7" font-family="Courier New" font-size="14.00">2</text>
<polyline fill="none" stroke="black" points="854.92,-0.5 854.92,-99.7 "/>
<text text-anchor="middle" x="955.33" y="-83.1" font-family="Courier New" font-size="14.00">type: variable (bytes)</text>
<polyline fill="none" stroke="black" points="854.92,-74.9 1055.75,-74.9 "/>
<text text-anchor="middle" x="954.93" y="-58.3" font-family="Courier New" font-size="14.00">uint256: valueA (32)</text>
<polyline fill="none" stroke="black" points="854.92,-50.1 1055.75,-50.1 "/>
<text text-anchor="middle" x="955.33" y="-33.5" font-family="Courier New" font-size="14.00">uint256: bigValue (32)</text>
<polyline fill="none" stroke="black" points="854.92,-25.3 1055.75,-25.3 "/>
<text text-anchor="middle" x="954.93" y="-8.7" font-family="Courier New" font-size="14.00">uint256: valueB (32)</text>
</g>
<!-- 4&#45;&gt;3 -->
<g id="edge3" class="edge">
<title>4:22&#45;&gt;3</title>
<path fill="none" stroke="black" d="M668.9,-205.5C704.28,-205.5 677.97,-157.45 704.9,-134.5 730.71,-112.5 763.34,-97.2 795.66,-86.56"/>
<polygon fill="black" stroke="black" points="796.73,-89.89 805.22,-83.55 794.63,-83.22 796.73,-89.89"/>
</g>
</g>
</svg>
